<?xml version="1.0" ?><svg id="Layer_1" style="enable-background:new 0 0 512 512;" version="1.1" viewBox="0 0 512 512" xml:space="preserve" xmlns="http://www.w3.org/2000/svg" xmlns:xlink="http://www.w3.org/1999/xlink"><style type="text/css">
	.st0{fill:#333333;}
	.st1{fill:#4D4D4D;}
</style><g><g><g><g><g><path class="st0" d="M257,390c-40.4,0-78.3-18-103.9-49.5c-15.5-19.1-25.4-42-28.8-66.2c-0.8-5.9-1.3-12.1-1.3-18.3       c0-21,5-41.9,14.4-60.3c11.1-21.8,27.9-40.2,48.6-53.2c21.3-13.4,45.9-20.5,71.1-20.5c25.3,0,49.9,7.1,71.3,20.6       c20.8,13.1,37.5,31.6,48.5,53.4c9.3,18.4,14.2,39.2,14.2,60v0.8c-0.2,36.4-14.8,70.3-41,95.6c-7.6,7.4-16.1,13.8-25.1,19.2       c-15.5,9.1-32.4,14.9-50.2,17.3C268.6,389.6,262.7,390,257,390z M257,134c-46.2,0-87.9,25.7-109,67.1       c-8.5,16.8-13,35.8-13,54.9c0,5.7,0.4,11.3,1.1,16.7c3.1,22,12.1,42.8,26.2,60.3c23.4,28.6,57.9,45.1,94.6,45.1       c5.2,0,10.6-0.4,16-1.1c16.2-2.2,31.6-7.4,45.7-15.7c8.2-4.8,15.9-10.7,22.9-17.4c23.9-23,37.2-53.9,37.4-87V256       c0-19-4.5-37.8-13-54.6c0,0,0,0,0,0C345.2,159.8,303.4,134,257,134z M257,335.9c-42,0-77.1-32.9-79.8-74.8       c-0.1-1.7-0.2-3.3-0.2-5.1c0.1-21.8,8.7-42,24.2-57.1c15-14.7,34.9-22.8,55.8-22.8c19.1,0,37.6,6.8,52,19.3       c17.7,15.3,27.9,37.4,27.9,60.6c0,32.4-19.4,61.4-49.4,73.8C277.8,333.9,267.5,335.9,257,335.9z M257,188.1       c-17.8,0-34.6,6.9-47.4,19.4c0,0,0,0,0,0c-13.2,12.8-20.5,30-20.6,48.5c0,1.4,0.1,2.8,0.2,4.3c2.3,35.7,32.1,63.6,67.8,63.6       c8.9,0,17.7-1.7,25.9-5.1c25.5-10.6,42-35.2,42-62.8c0-19.8-8.6-38.6-23.7-51.6C288.9,193.9,273.2,188.1,257,188.1z        M205.4,203.2L205.4,203.2L205.4,203.2z"/></g></g></g></g></g><g><g><g><g><path class="st0" d="M389.1,160.5c-20,0-36.3-16.3-36.3-36.3s16.3-36.3,36.3-36.3s36.3,16.3,36.3,36.3S409.1,160.5,389.1,160.5z       M389.1,99.9c-13.4,0-24.3,10.9-24.3,24.3s10.9,24.3,24.3,24.3s24.3-10.9,24.3-24.3C413.4,110.8,402.5,99.9,389.1,99.9z"/></g></g></g></g><g><g><g><g><g><path class="st0" d="M380.2,510.6H132.5c-34.8-0.4-67.4-14.3-92-39c-24.5-24.8-38-57.6-38-92.4V132.9c0-2.6,0.1-5.1,0.2-7.5       C6.7,55.9,64.3,1.5,133.9,1.5h246.2c72.4,0,131.4,58.9,131.5,131.4v246.3C511.6,451.7,452.7,510.6,380.2,510.6z M133.9,13.5       c-63.2,0-115.6,49.4-119.2,112.4c-0.1,2.3-0.2,4.6-0.2,7v246.3c0,65.1,53,118.6,118.1,119.4h247.6       c65.8,0,119.4-53.6,119.4-119.4V132.9c-0.1-65.8-53.7-119.4-119.5-119.4H133.9z M380.1,456.4H133.9c-1.6,0-3.4,0-5.2-0.2       c-7.4-0.4-14.7-2-21.7-4.7c-13.9-5.2-26.1-14.2-35-26.2c-8.1-10.8-13.3-23.6-14.8-36.9c-0.4-3.4-0.5-6.5-0.5-9.4V132.9       c0-42.6,34.7-77.3,77.3-77.3h246.3c42.6,0,77.3,34.7,77.3,77.3v246.2c0,0.6-0.1,1.1-0.2,1.6       C456.5,422.6,422.2,456.4,380.1,456.4z M134,67.6c-36,0-65.3,29.3-65.3,65.3V379c0,2.5,0.2,5.2,0.5,8.1       c1.3,11.1,5.7,21.9,12.5,31c7.5,10.2,17.8,17.8,29.6,22.2c5.9,2.3,12.1,3.6,18.4,3.9c0.2,0,0.3,0,0.5,0       c1.1,0.1,2.4,0.1,3.8,0.1h246.2c36,0,65.3-29.3,65.3-65.3c0-0.5,0.1-1,0.2-1.5V132.9c0-36-29.3-65.3-65.3-65.3H134z"/></g></g></g></g></g><g><g><g><g><g><path class="st1" d="M25.8,42.6C43.4,27.2,63.9,15.1,85.9,7.2C59.3,4.5,32.5,3.8,5.8,4.9C5.5,20.7-0.1,50,8.1,64       C14,57.1,18.5,49,25.8,42.6z"/></g></g></g></g></g><g><g><g><g><g><path class="st1" d="M23.7,454.4c3.5,4.5,6.3,9.4,9.5,14.1c10.3,14.8,25.4,26.2,42.5,31.9c-22.3,4.3-44.8,8.6-67.5,9.6       c-1,0-2.2,0-2.9-0.6s-0.9-1.7-1-2.7c-2-19,2.3-37.8-1.1-56.8c-1-5.7-4.2-16.7,4.7-13.9C11.7,437.2,20.9,450.9,23.7,454.4z"/></g></g></g></g></g><g><g><g><g><g><path class="st1" d="M508.7,490.2c-0.3,4.4-0.7,9.1-3.3,12.7c-4.9,6.8-14.9,6.6-23.2,6.1c-18-1-36.1-0.1-53.8,2.8       c15.4-7.1,29.2-17.2,42.8-27.3c7.1-5.3,14.6-10.7,19.9-17.9c4.2-5.6,5.4-17.1,10.9-21c8.8-6.1,7.7,3.6,7.9,10.6       C510.3,467.5,509.5,478.9,508.7,490.2z"/></g></g></g></g></g><g><g><g><g><g><path class="st1" d="M505.9,53.1c-1-8.1-0.1-16.3-0.4-24.5c-0.1-4.4-0.6-8.8-1.4-13.2c-0.4-1.9-0.9-3.9-2.3-5.2       c-1.5-1.3-3.5-1.5-5.5-1.7c-23.9-2-47.9-3.1-71.8-4.2c23.2,1,49.4,25.2,62.2,42.6c3.9,5.3,7.3,11,10.2,16.9       c2.5,5,3.6,14,6.9,18.1c4.7,5.9,5.7,3.9,6.4-3.7C511,70.2,506.8,61.1,505.9,53.1z"/></g></g></g></g></g><g><g><g><g><g><path class="st1" d="M307,239.2c-4.3-23-29.8-38-52.4-37.3c-0.1,0-0.2,0-0.4,0c-1.7,0.1-3.4,0.2-5,0.5       c-27.5,4.2-50.1,25-48.2,54.7c0.4,7.1,2.4,13.9,5.4,20.2c7,14.3,19.9,25.9,35.1,31.2c5.1,1.8,10.5,2.9,15.9,2.6       c0.7,0,1.4-0.1,2-0.2c4.2-0.5,8.3-1.8,12.2-3.5C297.1,296.5,312.1,266.4,307,239.2z M243,243.1c1-2.1,3.4-3,5.5-2s3,3.4,2,5.5       s-3.4,3-5.5,2C243,247.7,242,245.2,243,243.1z M274.4,272.3c-2.1,4.7-7.6,6.7-12.3,4.5c-4.6-2.2-6.7-7.6-4.5-12.3       c2.1-4.7,7.6-6.7,12.3-4.5S276.5,267.7,274.4,272.3z"/></g></g></g></g></g><g><g><g><g><g><path class="st1" d="M424.2,236.9c-1.9-12.9-3-25.7-2.4-38.3c0.4-8,1.4-15.9,3.4-23.8c2.4-9.4,13.3-27.4,16.3-35.5       c-10.7,8.3-32.8,29.1-47.4,28.9c-9.9-0.2-22.9-9-34.9-19.4c-11.2-9.7-16.4-24.9-12.7-39.3c0.7-2.8,1.8-5.7,3.3-8.6       c6.1-11.5,16.5-21,29.2-24.6c-62-7.4-124.8,1.7-187.3,1.2c-19.6-0.2-39.6-1.3-58.6,3.5c-19.1,4.7-37.6,16.5-44.7,34.8       c-2.5,6.5-3.5,13.4-4.4,20.3c-3.7,30.2-4.8,60.7-3.2,91c0.9,17.3,2.7,34.7,0.9,51.9c-0.5,4.4-1.2,8.7-1.9,13       c-0.7,4.4-1.5,8.8-2,13.3c-1.9,15.7-1.2,31.6-0.5,47.5c0.9,20.2,2.7,42.4,16.7,57c8.7,9,20.7,13.6,33.1,16.5       c2.7,0.6,5.4,1.2,8.1,1.7c1.2,0.2,2.3,0.4,3.5,0.6c1.9,0.3,3.7,0.7,5.6,1c43.4,7.1,87.8,6.1,131.9,5       c30.8-0.7,61.6-1.5,92.4-2.2c8.9-0.2,18-0.5,26.6-3.1c20.9-6.5,35.2-26.8,40.7-48s3.6-43.6,1.7-65.4       C435.3,289.8,428.1,263.2,424.2,236.9z M111.8,384c-4.3,3.8-10.8,3.4-14.5-0.9c-3.8-4.3-3.3-10.8,0.9-14.5       c4.3-3.8,10.8-3.3,14.5,0.9C116.5,373.7,116.1,380.2,111.8,384z M140.7,408.9c-5.9,5.2-14.9,4.7-20.2-1.3       c-5.2-5.9-4.7-14.9,1.3-20.2c5.9-5.2,14.9-4.7,20.2,1.3C147.2,394.7,146.6,403.7,140.7,408.9z M134.7,363.8       c1.9-1.7,4.8-1.5,6.5,0.4s1.5,4.8-0.4,6.5s-4.8,1.5-6.5-0.4C132.5,368.4,132.7,365.5,134.7,363.8z M400.6,264.7       c-4.6,27.1-5.5,55-21.6,77.4c-21.4,29.7-59.2,42.3-95.2,48.8c-15.1,2.8-30.6,4.8-45.8,3.1c-1.7-0.2-3.3-0.4-5-0.7       c-13.2-2.2-25.6-7.4-37.9-12.6c-9.1-3.8-18.3-7.7-27.4-11.5c-9.4-4-18.9-7.9-27.2-13.9c-0.7-0.5-1.4-1-2-1.5       c-7-5.3-12.9-12-17.4-19.5c-1.4-2.2-2.6-4.5-3.6-6.9c-1.4-3.2-2.6-6.4-3.6-9.7c-3.3-11.1-4.4-23-5.1-34.7       c-1.4-25.3-1-50.9,5.3-75.5c6.2-24.5,18.7-48,38.1-64.3c27.2-22.8,64.3-28.9,99.6-32.7c11.2-1.2,22.5-2.3,33.6-0.3       c11,2,21.3,7.1,31.3,12.1c4.6,2.3,9.1,4.9,13.7,7.5c7,4,13.1,9.3,18.1,15.6c14.1,18.1,31.8,38.6,36.8,49.2       c0.6,1.3,1.2,2.6,1.7,3.8c4.5,10.4,7.2,20.3,11,31.4c1.9,5.6,3.1,11.4,3.5,17.3C401.9,253.1,401.6,258.9,400.6,264.7z"/></g></g></g></g></g></svg>