<?xml version="1.0" ?><svg id="Layer_1" style="enable-background:new 0 0 512 512;" version="1.1" viewBox="0 0 512 512" xml:space="preserve" xmlns="http://www.w3.org/2000/svg" xmlns:xlink="http://www.w3.org/1999/xlink"><style type="text/css">
	.st0{fill:#333333;}
	.st1{fill:#4D4D4D;}
</style><g><g><path class="st0" d="M68,134c-0.4,0-0.9,0-1.3,0c-16.8,0.3-33.5-6.5-45.9-18.6C8,102.9,1,86.1,1,68.2c0-17.5,6.9-34,19.4-46.4    C32.9,9.4,49.5,2.6,67.1,2.6c0,0,0,0,0,0c17.4,0,33.9,6.9,46.3,19.4c12.5,12.5,19.3,29,19.3,46.5c0,0,0,0,0,0    c0,17.9-7.1,34.6-19.9,47.1C100.7,127.3,84.5,134,68,134z M66.7,122c0,0,0.1,0,0.1,0c13.7,0.3,27.4-5.2,37.6-15.1    c10.5-10.2,16.2-23.9,16.3-38.5c0-14.3-5.6-27.8-15.8-38C94.8,20.2,81.3,14.6,67.1,14.6c0,0,0,0,0,0c-14.4,0-28,5.6-38.2,15.8    C18.6,40.5,13,53.9,13,68.2c0,14.7,5.8,28.4,16.2,38.7c10.1,9.9,23.7,15.4,37.4,15.1C66.7,122,66.7,122,66.7,122z M126.7,68.4    L126.7,68.4L126.7,68.4z"/></g><g><path class="st0" d="M498.2,511.4l-89.5,0c-7.1,0-12.8-5.8-12.8-12.8V314.1c0-13.8-5.4-26.8-15.2-36.6    c-9.9-9.9-23.1-15.3-37.2-15.2c-28.2,0.3-51.1,23.9-51.1,52.5v183.7c0,7.1-5.8,12.8-12.8,12.8l-89.3,0c-7.1,0-12.8-5.8-12.8-12.8    v-318c0-7.1,5.8-12.8,12.8-12.8h87.4c7.1,0,12.8,5.8,12.8,12.8v18.5c20.2-25.1,50.8-39.8,83.2-39.8h18    c65.8,0,119.4,53.6,119.4,119.4v220C511,505.7,505.2,511.4,498.2,511.4z M344.1,250.3c17.1,0,33.1,6.6,45.1,18.7    c12,12,18.7,28,18.7,45.1v184.5c0,0.5,0.4,0.8,0.8,0.8l89.5,0c0.5,0,0.8-0.4,0.8-0.8v-220c0-59.2-48.2-107.4-107.4-107.4h-18    c-31,0-60.1,15.2-77.8,40.7c-1.8,2.6-3.6,5.4-5.2,8.3c-1.2,2.2-3.7,3.4-6.2,3c-0.2,0-0.3,0-0.4-0.1c-0.6,0-1.2-0.2-1.8-0.4    c-2.3-0.9-3.7-3.1-3.7-5.6v-36.7c0-0.5-0.4-0.8-0.8-0.8h-87.4c-0.4,0-0.8,0.4-0.8,0.8v318c0,0.5,0.4,0.8,0.8,0.8l89.3,0    c0.5,0,0.8-0.4,0.8-0.8V314.8c0-35.2,28.3-64.1,63-64.5C343.6,250.3,343.8,250.3,344.1,250.3z M284.4,223.2c0.2,0,0.4,0,0.7,0    C284.8,223.2,284.6,223.2,284.4,223.2z M288.7,221.4L288.7,221.4L288.7,221.4z M288.7,221.4C288.7,221.4,288.7,221.4,288.7,221.4    C288.7,221.4,288.7,221.4,288.7,221.4z M288.7,221.4C288.7,221.4,288.7,221.4,288.7,221.4C288.7,221.4,288.7,221.4,288.7,221.4z     M288.7,221.4C288.7,221.4,288.7,221.4,288.7,221.4C288.7,221.4,288.7,221.4,288.7,221.4z"/></g><g><g><path class="st0" d="M68,134c-0.4,0-0.9,0-1.3,0c-16.8,0.3-33.5-6.5-45.9-18.6C8,102.9,1,86.1,1,68.2c0-17.5,6.9-34,19.4-46.4     C32.9,9.4,49.5,2.6,67.1,2.6c0,0,0,0,0,0c17.4,0,33.9,6.9,46.3,19.4c12.5,12.5,19.3,29,19.3,46.5c0,0,0,0,0,0     c0,17.9-7.1,34.6-19.9,47.1C100.7,127.3,84.5,134,68,134z M66.7,122c0,0,0.1,0,0.1,0c13.7,0.3,27.4-5.2,37.6-15.1     c10.5-10.2,16.2-23.9,16.3-38.5c0-14.3-5.6-27.8-15.8-38C94.8,20.2,81.3,14.6,67.1,14.6c0,0,0,0,0,0c-14.4,0-28,5.6-38.2,15.8     C18.6,40.5,13,53.9,13,68.2c0,14.7,5.8,28.4,16.2,38.7c10.1,9.9,23.7,15.4,37.4,15.1C66.7,122,66.7,122,66.7,122z M126.7,68.4     L126.7,68.4L126.7,68.4z"/></g><g><path class="st0" d="M498.2,511.4l-89.5,0c-7.1,0-12.8-5.8-12.8-12.8V314.1c0-13.8-5.4-26.8-15.2-36.6     c-9.9-9.9-23.1-15.3-37.2-15.2c-28.2,0.3-51.1,23.9-51.1,52.5v183.7c0,7.1-5.8,12.8-12.8,12.8l-89.3,0c-7.1,0-12.8-5.8-12.8-12.8     v-318c0-7.1,5.8-12.8,12.8-12.8h87.4c7.1,0,12.8,5.8,12.8,12.8v18.5c20.2-25.1,50.8-39.8,83.2-39.8h18     c65.8,0,119.4,53.6,119.4,119.4v220C511,505.7,505.2,511.4,498.2,511.4z M344.1,250.3c17.1,0,33.1,6.6,45.1,18.7     c12,12,18.7,28,18.7,45.1v184.5c0,0.5,0.4,0.8,0.8,0.8l89.5,0c0.5,0,0.8-0.4,0.8-0.8v-220c0-59.2-48.2-107.4-107.4-107.4h-18     c-31,0-60.1,15.2-77.8,40.7c-1.8,2.6-3.6,5.4-5.2,8.3c-1.2,2.2-3.7,3.4-6.2,3c-0.2,0-0.3,0-0.4-0.1c-0.6,0-1.2-0.2-1.8-0.4     c-2.3-0.9-3.7-3.1-3.7-5.6v-36.7c0-0.5-0.4-0.8-0.8-0.8h-87.4c-0.4,0-0.8,0.4-0.8,0.8v318c0,0.5,0.4,0.8,0.8,0.8l89.3,0     c0.5,0,0.8-0.4,0.8-0.8V314.8c0-35.2,28.3-64.1,63-64.5C343.6,250.3,343.8,250.3,344.1,250.3z M284.4,223.2c0.2,0,0.4,0,0.7,0     C284.8,223.2,284.6,223.2,284.4,223.2z M288.7,221.4L288.7,221.4L288.7,221.4z M288.7,221.4C288.7,221.4,288.7,221.4,288.7,221.4     C288.7,221.4,288.7,221.4,288.7,221.4z M288.7,221.4C288.7,221.4,288.7,221.4,288.7,221.4C288.7,221.4,288.7,221.4,288.7,221.4z      M288.7,221.4C288.7,221.4,288.7,221.4,288.7,221.4C288.7,221.4,288.7,221.4,288.7,221.4z"/></g></g></g><g><path class="st0" d="M101.2,511.4h-73C15.4,511.4,5,501.3,5,488.9V190.2c0-12.4,10.4-22.5,23.2-22.5h73c12.8,0,23.2,10.1,23.2,22.5   v298.7C124.3,501.3,113.9,511.4,101.2,511.4z M28.2,179.7c-6.1,0-11.2,4.7-11.2,10.5v298.7c0,5.8,5,10.5,11.2,10.5h73   c6.1,0,11.2-4.7,11.2-10.5V190.2c0-5.8-5-10.5-11.2-10.5H28.2z"/></g><g><path class="st0" d="M68,134c-0.4,0-0.9,0-1.3,0c-16.8,0.3-33.5-6.5-45.9-18.6C8,102.9,1,86.1,1,68.2c0-17.5,6.9-34,19.4-46.4   C32.9,9.4,49.5,2.6,67.1,2.6c0,0,0,0,0,0c17.4,0,33.9,6.9,46.3,19.4c12.5,12.5,19.3,29,19.3,46.5c0,0,0,0,0,0   c0,17.9-7.1,34.6-19.9,47.1C100.7,127.3,84.5,134,68,134z M66.7,122c0,0,0.1,0,0.1,0c13.7,0.3,27.4-5.2,37.6-15.1   c10.5-10.2,16.2-23.9,16.3-38.5c0-14.3-5.6-27.8-15.8-38C94.8,20.2,81.3,14.6,67.1,14.6c0,0,0,0,0,0c-14.4,0-28,5.6-38.2,15.8   C18.6,40.5,13,53.9,13,68.2c0,14.7,5.8,28.4,16.2,38.7c10.1,9.9,23.7,15.4,37.4,15.1C66.7,122,66.7,122,66.7,122z M126.7,68.4   L126.7,68.4L126.7,68.4z"/></g><g><path class="st0" d="M498.2,511.4l-89.5,0c-7.1,0-12.8-5.8-12.8-12.8V314.1c0-13.8-5.4-26.8-15.2-36.6   c-9.9-9.9-23.1-15.3-37.2-15.2c-28.2,0.3-51.1,23.9-51.1,52.5v183.7c0,7.1-5.8,12.8-12.8,12.8l-89.3,0c-7.1,0-12.8-5.8-12.8-12.8   v-318c0-7.1,5.8-12.8,12.8-12.8h87.4c7.1,0,12.8,5.8,12.8,12.8v18.5c20.2-25.1,50.8-39.8,83.2-39.8h18   c65.8,0,119.4,53.6,119.4,119.4v220C511,505.7,505.2,511.4,498.2,511.4z M344.1,250.3c17.1,0,33.1,6.6,45.1,18.7   c12,12,18.7,28,18.7,45.1v184.5c0,0.5,0.4,0.8,0.8,0.8l89.5,0c0.5,0,0.8-0.4,0.8-0.8v-220c0-59.2-48.2-107.4-107.4-107.4h-18   c-31,0-60.1,15.2-77.8,40.7c-1.8,2.6-3.6,5.4-5.2,8.3c-1.2,2.2-3.7,3.4-6.2,3c-0.2,0-0.3,0-0.4-0.1c-0.6,0-1.2-0.2-1.8-0.4   c-2.3-0.9-3.7-3.1-3.7-5.6v-36.7c0-0.5-0.4-0.8-0.8-0.8h-87.4c-0.4,0-0.8,0.4-0.8,0.8v318c0,0.5,0.4,0.8,0.8,0.8l89.3,0   c0.5,0,0.8-0.4,0.8-0.8V314.8c0-35.2,28.3-64.1,63-64.5C343.6,250.3,343.8,250.3,344.1,250.3z M284.4,223.2c0.2,0,0.4,0,0.7,0   C284.8,223.2,284.6,223.2,284.4,223.2z M288.7,221.4L288.7,221.4L288.7,221.4z M288.7,221.4C288.7,221.4,288.7,221.4,288.7,221.4   C288.7,221.4,288.7,221.4,288.7,221.4z M288.7,221.4C288.7,221.4,288.7,221.4,288.7,221.4C288.7,221.4,288.7,221.4,288.7,221.4z    M288.7,221.4C288.7,221.4,288.7,221.4,288.7,221.4C288.7,221.4,288.7,221.4,288.7,221.4z"/></g><g><path class="st1" d="M388.1,486.1c-0.8-7.2-2.8-14.8-3.2-20.9c-2.9-36.8,1.3-73.6,1.6-110.4c0.1-10.4-0.1-20.7-0.9-31.1   c-1.6-16.8-6.8-35.9-22.1-42.9c-3.9-1.8-8.2-2.6-12.4-3.4c-5.9-1.1-12.2-2.2-18.2-2.3c-5.5,0-10.8,0.9-15.7,3.4   c-5.6,3-9.7,7.7-12.7,13.3c-3.1,5.8-5,12.4-6.2,18.8c-2.9,15.6-2.8,31.4-1.7,47.3c1.3,19.5,4.2,39.2,5,58.8   c0.3,7.1,0.3,14.1,0.2,21.1c-0.5,21-2.9,42-5.5,62.9c-0.3,2.2-0.5,4.6,0.9,6.4c1.5,1.9,4.3,2.2,6.8,2.2c20.9,0.4,52.8,7.2,72.6,0.9   C388.1,506.5,389.3,496.6,388.1,486.1z M329.9,397.8c1-2.1,3.4-3,5.5-2c2.1,1,3,3.4,2,5.5c-1,2.1-3.4,3-5.5,2   C329.8,402.3,328.9,399.9,329.9,397.8z M344.5,419.3c2.1-4.7,7.6-6.7,12.3-4.5c4.6,2.1,6.7,7.6,4.5,12.3c-2.2,4.7-7.6,6.7-12.3,4.5   C344.3,429.4,342.3,423.9,344.5,419.3z"/></g><g><path class="st1" d="M296.8,179.6c0.4-0.9,0.8-1.8,1.3-2.6C297.8,177.9,297.4,178.8,296.8,179.6z"/></g><g><path class="st1" d="M502.4,161.5c1.6-38.1-3.3-69.4,3.8-104.5C509,43,510.7,12,499.4,3.5c-6.7-5-20.7-1.3-29.1-1.3   C412,2,353.5,0.7,298.1,3.5c-37.8,1.9-73.9,3.2-111.7,1.4c-27.1-1.3-54.2-2.8-81.3-4.4c16,2.7,28,17.1,32.8,32.5   c1.5,4.8,2.4,9.6,3,14.5c1.3,11.1,0.6,22.5-0.1,33.7c-0.4,6-0.8,12.1-2.6,17.8c-0.5,1.4-1,2.8-1.7,4.2c-1.8,4-4.3,7.7-7.1,11.1   c-15.5,19.2-40.7,30.2-65.3,28.6c-24.6-1.6-48.1-15.8-61.1-36.8c5,21.8,4.9,44.7-0.1,66.5c32.3-15,69.1-20.3,104.4-14.9   c3.7,0.6,7.5,1.3,10.7,3.3c7.2,4.7,8.4,14.6,9,23.1c6.7,108,8.8,217.5-0.3,325.3c-0.2,2.4,38.5,0.5,43.2-14.6   c6.2-19.7-1.8-49.8-2.9-70.3c-2.7-52.8-3.9-105.8-3.6-158.7c0.1-30.4,0.8-60.9,1.9-91.3c0.2-6.4,1.1-14,6.7-17.1   c2.7-1.6,6-1.7,9.2-1.7c2.9,0,5.8-0.1,8.8-0.2c25.1-0.4,50.2-0.9,75.3-1.3c8.4-0.2,17.2-0.2,24.5,4c6.4,3.7,10.6,12,8.3,18.7   c0.8-1.5,1.7-2.9,2.6-4.2c10.8-15,31.5-21.5,50.4-24.5c33.2-5.2,68.1-4.6,99,8.6c30.8,13.2,51.5,43.6,56.7,76.8   C509.9,210.6,501.4,184.8,502.4,161.5z M217.3,110c-4.9,9.4-16.5,13.1-25.9,8.2c-9.4-4.9-13.1-16.4-8.2-25.8   c4.9-9.4,16.5-13.1,25.9-8.2C218.5,89,222.1,100.5,217.3,110z M227.3,64c-3.5,6.8-11.9,9.4-18.6,5.9c-6.8-3.5-9.4-11.9-5.9-18.6   c3.5-6.8,11.9-9.4,18.6-5.9C228.1,48.9,230.8,57.2,227.3,64z M247.6,97.1c-1.6,3.1-5.3,4.2-8.4,2.7c-3-1.6-4.2-5.3-2.7-8.4   c1.6-3,5.3-4.2,8.4-2.7C248,90.3,249.2,94,247.6,97.1z"/></g><g><path class="st1" d="M5.4,2.9c-0.6,0-1.1,0-1.6,0.3C3.4,3.5,3.1,4,2.9,4.4c-1.2,2.8-1.2,6-1.2,9c0,9.1,0,18.1,0,27.2   c-0.2-3.5-0.3-7.2,0.8-10.5c1.8-5.3,6.6-9,11.2-12.4c2.9-2.1,5.8-4.3,8.7-6.4c2.6-1.9,6.8-3.3,9.1-5.3c2.9-2.7,0.6-2.9-2.7-3   C21,2.8,13.2,2.8,5.4,2.9z"/></g></svg>